<?xml version="1.0" encoding="UTF-8"?>
<svg id="Layer_2" data-name="Layer 2" xmlns="http://www.w3.org/2000/svg" viewBox="0 0 400 400">
  <defs>
    <style>
      .cls-1 {
        fill: #1282c5;
      }

      .cls-1, .cls-2 {
        stroke-width: 0px;
      }

      .cls-2 {
        fill: #fff;
      }
    </style>
  </defs>
  <g id="Layer_1-2" data-name="Layer 1">
    <rect class="cls-2" x="0" y="0" width="400" height="400" rx="50.5" ry="50.5"/>
    <path class="cls-1" d="M295.72,48.26v54.89c-2.42,0-4.63,0-6.84,0-22.98,0-45.96-.04-68.93.01-29.74.06-42.74,12.77-43.34,42.55-.22,10.85-.04,21.71-.04,33h112.99v55.27h-112.89v118.09h-72.31c0-2.04,0-4.06,0-6.09,0-67.79-.29-135.57.26-203.35.11-12.82,1.96-26.15,5.87-38.32,9.8-30.48,33.12-46.27,63.34-52.73,9.31-1.99,18.94-3.23,28.44-3.37,29.87-.44,59.74-.2,89.61-.2,1.11,0,2.22.15,3.83.26Z"/>
  </g>
</svg>