<?xml version="1.0" encoding="UTF-8"?>
<svg id="Layer_2" xmlns="http://www.w3.org/2000/svg" viewBox="0 0 70.73 70.53">
  <defs>
    <style>
      .cls-1 {
        fill: #fff;
      }
    </style>
  </defs>
  <g id="Layer_1-2" data-name="Layer_1">
    <g>
      <path d="M70.57,33.05c-1.34-9.47-9.75-14.53-16.32-14.18v6.33c3.27.09,5.95,1.38,7.94,3.96,2.02,2.61,2.58,5.59,1.73,8.75-1.52,5.6-7.14,8.29-12.01,7.21v-.76c0-2.89,0-5.79,0-8.68-.02-4.86-1.67-9.02-5.21-12.43-5.66-5.45-14.92-5.95-21.25-1.13-6.19,4.71-8.47,13.37-4.7,20.69,4.03,7.83,13.48,11.08,21.39,7.49,1.14-.52,2.17-1.28,3.27-1.94.01.05.04.14.04.23,0,1.86.01,3.71,0,5.57-.06,5.27-3.95,9.38-9.02,9.9-4.65.47-8.82-2.16-10.43-6.5-.4-1.09-.55-2.27-.82-3.46h-6.32c.07.82.1,1.57.22,2.3,1.5,9.3,9.83,15.36,19.08,13.9,7.35-1.16,13.14-7.47,13.62-14.88.08-1.27.12-2.54.19-3.87,2.56.27,5.07.2,7.51-.65,2.43-.85,4.56-2.16,6.39-3.98,1.83-1.82,3.15-3.95,3.98-6.38.83-2.44,1.08-4.94.72-7.48ZM35.42,45.33c-5.58,0-10.05-4.48-10.05-10.07,0-5.55,4.42-10.01,9.99-10.06,5.44-.05,10,4.47,10.12,9.82.12,5.45-4.31,10.3-10.06,10.31Z"/>
      <path d="M24.94,16.48c.43,0,.42-.26.44-.57.14-2.57,1.14-4.76,2.96-6.56,5.48-5.43,14.78-2.91,16.79,4.55.22.82.31,1.68.46,2.55h6.27c.2-4.89-2.53-10.98-8.16-14.22-5.77-3.32-13-2.93-18.24,1.12-4.26,3.29-6.39,7.68-6.56,13.13,2.1,0,4.07,0,6.05,0Z"/>
      <path d="M2.41,26.94c-3.36,5.79-3.2,11.74.44,17.37,3.16,4.88,7.85,7.26,13.7,7.47v-6.38c-6.12-.37-9.46-4.73-9.94-8.95-.25-2.21.14-4.33,1.32-6.25,1.97-3.23,4.91-4.83,8.65-5.01v-6.42c-6.23.26-11.08,2.88-14.17,8.19Z"/>
      <path class="cls-1" d="M35.37,25.21c-5.57.05-9.99,4.5-9.99,10.06,0,5.58,4.47,10.07,10.05,10.07,5.75,0,10.18-4.86,10.06-10.31-.11-5.34-4.67-9.87-10.12-9.82Z"/>
    </g>
  </g>
</svg>