<?xml version="1.0" encoding="UTF-8"?>
<svg id="Layer_2" xmlns="http://www.w3.org/2000/svg" viewBox="0 0 141.13 19.35">
  <defs>
    <style>
      .cls-1 {
        fill: #fff;
      }
    </style>
  </defs>
  <g id="Layer_1-2" data-name="Layer_1">
    <g>
      <path d="M9.85,8.99v3.08h5.38c-.55,2.09-2.77,3.6-5.28,3.7-2.76.11-5.14-1.55-6.08-4.22-.85-2.41.08-5.25,2.21-6.81,2.48-1.81,5.3-1.53,8.49.87.85-.75,1.72-1.51,2.61-2.29-.12-.15-.21-.26-.3-.36C13.96-.13,8.98-.9,5.13,1.12,1.32,3.13-.71,7.52.22,11.75c1.46,6.63,9.25,9.74,14.98,5.98,3.16-2.08,4.33-5.74,3.91-8.74h-9.26Z"/>
      <path d="M100.8,11.56c2.06-1.3,3.18-3.8,2.74-6.09-.53-2.71-2.25-4.56-4.89-4.91-1.73-.23-3.51-.14-5.26-.17-1.18-.02-2.35,0-3.56,0v18.51h3.65v-6.43c.82,0,1.57.02,2.31,0,.44-.02.68.15.9.54,1.03,1.82,2.09,3.63,3.16,5.43.12.2.35.48.54.48,1.24.04,2.47.02,3.84.02-1.41-2.4-2.74-4.68-4.08-6.98.25-.15.46-.27.66-.4ZM97.66,9.22c-1.36.1-2.74.02-4.17.02V3.9c1.46,0,2.91-.12,4.33.03,1.36.15,2.16,1.36,2.11,2.77-.05,1.26-1,2.42-2.27,2.52Z"/>
      <path d="M36.12,1c-.16-.45-.37-.65-.88-.63-.96.05-1.93.04-2.89,0-.56-.03-.83.13-1.04.7-1.83,5.1-3.71,10.18-5.57,15.27-.31.84-.6,1.69-.91,2.58h3.92c.32-.91.66-1.8.94-2.72.13-.45.33-.6.8-.6,2.17.02,4.34.02,6.51,0,.46,0,.63.17.76.57.24.78.5,1.56.81,2.32.08.2.38.44.58.44,1.13.04,2.26.02,3.51.02-.66-1.8-1.27-3.5-1.89-5.19-1.56-4.25-3.12-8.5-4.67-12.76ZM31.12,12.16c.85-2.47,1.7-4.92,2.55-7.37.06,0,.11.02.17.03.84,2.42,1.67,4.84,2.54,7.34h-5.25Z"/>
      <path d="M134.54.76c-.06-.17-.38-.35-.59-.35-1.01-.04-2.03.03-3.04-.03-.62-.04-.87.2-1.07.75-2.07,5.7-4.16,11.39-6.24,17.09-.08.22-.12.44-.19.73,1.21,0,2.34.02,3.47-.02.2,0,.47-.27.56-.47.37-.93.68-1.88,1.02-2.85,2.44,0,4.83-.01,7.22.02.2,0,.49.26.57.47.37.93.68,1.89,1.02,2.83h3.88c-.01-.14,0-.22-.03-.28-2.18-5.97-4.36-11.93-6.57-17.89ZM129.65,12.15c.86-2.47,1.7-4.89,2.54-7.32.06,0,.12,0,.18,0,.84,2.41,1.67,4.82,2.53,7.31h-5.25Z"/>
      <path d="M72.34,11.28h6.95v-3.48h-6.96v-3.94h7.89V.43h-11.47v18.47h11.63v-3.45h-8.05v-4.17Z"/>
      <path d="M53.94.43h-3.69v18.47h10.92v-3.4h-7.23V.43Z"/>
      <path d="M112.12,18.92h3.65V.43h-3.65v18.49Z"/>
      <path class="cls-1" d="M97.82,3.93c-1.42-.15-2.86-.03-4.33-.03v5.35c1.43,0,2.81.08,4.17-.02,1.26-.1,2.22-1.27,2.27-2.52.05-1.41-.75-2.62-2.11-2.77Z"/>
      <path class="cls-1" d="M33.67,4.8c-.85,2.45-1.7,4.9-2.55,7.37h5.25c-.86-2.5-1.7-4.92-2.54-7.34-.06,0-.11-.02-.17-.03Z"/>
      <path class="cls-1" d="M132.19,4.84c-.84,2.42-1.68,4.85-2.54,7.32h5.25c-.86-2.49-1.7-4.9-2.53-7.31-.06,0-.12,0-.18,0Z"/>
    </g>
  </g>
</svg>